<svg width="62" height="61" viewBox="0 0 62 61" fill="none" xmlns="http://www.w3.org/2000/svg">
<path d="M50.8607 8.56738H10.556C9.49601 8.56738 8.63672 9.41976 8.63672 10.4712V50.4519C8.63672 51.5033 9.49601 52.3557 10.556 52.3557H50.8607C51.9207 52.3557 52.7799 51.5033 52.7799 50.4519V10.4712C52.7799 9.41976 51.9207 8.56738 50.8607 8.56738Z" stroke="#CCCCCC" stroke-width="2" stroke-linecap="round" stroke-linejoin="round"/>
<path d="M28.7891 26.6538V41.8845" stroke="#CCCCCC" stroke-width="2" stroke-linecap="round" stroke-linejoin="round"/>
<path d="M21.112 26.6538V41.8845" stroke="#CCCCCC" stroke-width="2" stroke-linecap="round" stroke-linejoin="round"/>
<path d="M28.7891 33.3173C28.7891 31.55 29.4968 29.8551 30.7566 28.6055C32.0163 27.3558 33.7249 26.6538 35.5065 26.6538C37.2881 26.6538 38.9967 27.3558 40.2565 28.6055C41.5162 29.8551 42.224 31.55 42.224 33.3173V41.8845" stroke="#CCCCCC" stroke-width="2" stroke-linecap="round" stroke-linejoin="round"/>
<path d="M21.112 21.8941C22.702 21.8941 23.9909 20.6156 23.9909 19.0384C23.9909 17.4612 22.702 16.1826 21.112 16.1826C19.522 16.1826 18.2331 17.4612 18.2331 19.0384C18.2331 20.6156 19.522 21.8941 21.112 21.8941Z" fill="#CCCCCC"/>
</svg>
