<svg width="222" height="113" viewBox="0 0 222 113" fill="none" xmlns="http://www.w3.org/2000/svg">
<path d="M14.6651 73.6114H35.5995V78.9206H6.85743V28.9136H14.6651V73.6114Z" fill="white"/>
<path d="M17.0589 72.6966C17.0589 69.0376 18.0456 65.7551 20.0189 62.8494C21.9922 59.9079 24.6735 57.6119 28.0624 55.9618C31.4943 54.3117 35.2909 53.4866 39.452 53.4866C44.3424 53.4866 48.6109 54.4731 52.2572 56.4461C55.9035 58.4191 58.5633 61.2172 60.2363 64.8404H53.2224C51.9783 62.5804 50.1766 60.8406 47.8172 59.6209C45.5007 58.4012 42.7122 57.7914 39.452 57.7914C36.3204 57.7914 33.5105 58.4012 31.0224 59.6209C28.5343 60.8406 26.5824 62.5804 25.1668 64.8404C23.7511 67.0646 23.0433 69.6832 23.0433 72.6966C23.0433 75.6741 23.7511 78.2927 25.1668 80.5527C26.5824 82.7769 28.5343 84.4987 31.0224 85.7184C33.5105 86.9382 36.3204 87.5481 39.452 87.5481C42.7122 87.5481 45.5007 86.9561 47.8172 85.7722C50.1766 84.5526 51.9783 82.8127 53.2224 80.5527H60.2363C58.5633 84.1401 55.9035 86.9202 52.2572 88.8932C48.6109 90.8304 44.3424 91.7989 39.452 91.7989C35.2909 91.7989 31.4943 90.9918 28.0624 89.3776C24.6735 87.7274 21.9922 85.4494 20.0189 82.5437C18.0456 79.6381 17.0589 76.3556 17.0589 72.6966Z" fill="#06D8A5"/>
<path d="M91.9734 59.6029C93.6035 59.8182 95.0835 60.3743 96.4134 61.2711C97.7861 62.1679 98.8586 63.2799 99.6308 64.6073C100.446 65.9346 100.853 67.3516 100.853 68.8582C100.853 70.7594 100.274 72.4814 99.116 74.0239C97.9577 75.5306 96.2633 76.7323 94.0325 77.6291C91.8447 78.4901 89.2494 78.9206 86.2464 78.9206H69.516V41.4153H85.6029C88.6488 41.4153 91.2442 41.8458 93.389 42.7068C95.534 43.5318 97.1427 44.6618 98.2151 46.0968C99.2875 47.5316 99.8238 49.1459 99.8238 50.9396C99.8238 53.1638 99.0946 55.0112 97.636 56.4819C96.2203 57.9169 94.3327 58.9573 91.9734 59.6029ZM75.3716 57.6119H85.2168C87.9623 57.6119 90.0859 57.0739 91.5873 55.9978C93.0888 54.9216 93.8394 53.4328 93.8394 51.5316C93.8394 49.6303 93.0888 48.1416 91.5873 47.0653C90.0859 45.9891 87.9194 45.4511 85.0881 45.4511H75.3716V57.6119ZM85.7316 74.8849C88.6488 74.8849 90.9223 74.3109 92.5525 73.1629C94.1827 72.015 94.9977 70.4186 94.9977 68.3739C94.9977 66.2933 94.1397 64.6611 92.4238 63.4773C90.7079 62.2576 88.4127 61.6477 85.5386 61.6477H75.3716V74.8849H85.7316ZM169.646 48.8949C173.935 48.8949 177.41 49.9889 180.07 52.1773C182.729 54.3296 184.06 57.4506 184.06 61.5401V78.9206H178.267V62.2396C178.267 59.2981 177.388 57.0559 175.63 55.5134C173.871 53.935 171.468 53.1458 168.423 53.1458C165.333 53.1458 162.867 53.9529 161.023 55.5673C159.22 57.1816 158.319 59.5312 158.319 62.6163V78.9206H152.465V49.4329H158.319V53.6301C159.479 52.1234 161.044 50.9576 163.018 50.1324C165.033 49.3074 167.243 48.8949 169.646 48.8949Z" fill="white"/>
<path d="M106.792 64.0691C106.792 61.0558 107.521 58.4191 108.979 56.1591C110.438 53.8633 112.433 52.0876 114.964 50.8319C117.538 49.5764 120.39 48.9486 123.522 48.9486C126.611 48.9486 129.292 49.5047 131.565 50.6167C133.839 51.7288 135.533 53.1279 136.649 54.8139V49.4329H142.569V78.9206H136.649V73.4319C135.491 75.1539 133.753 76.5888 131.437 77.7367C129.163 78.8488 126.503 79.4049 123.458 79.4049C120.326 79.4049 117.495 78.7591 114.964 77.4677C112.433 76.1763 110.438 74.3647 108.979 72.0329C107.521 69.7012 106.792 67.0466 106.792 64.0691ZM136.649 64.1229C136.649 61.8988 136.113 59.9616 135.04 58.3114C133.968 56.6614 132.509 55.4058 130.665 54.5449C128.863 53.6481 126.868 53.1996 124.68 53.1996C122.492 53.1996 120.498 53.6301 118.696 54.4911C116.894 55.3519 115.457 56.6076 114.385 58.2577C113.312 59.9079 112.776 61.8449 112.776 64.0691C112.776 66.3291 113.312 68.3021 114.385 69.9882C115.457 71.6383 116.894 72.9118 118.696 73.8086C120.498 74.6696 122.492 75.1001 124.68 75.1001C126.868 75.1001 128.863 74.6696 130.665 73.8086C132.509 72.9118 133.968 71.6383 135.04 69.9882C136.113 68.3021 136.649 66.3471 136.649 64.1229ZM213.314 78.9206L199.481 65.8986V78.9206H193.625V39.1016H199.481V62.5086L213.058 49.4329H221.23L204.627 64.1229L221.295 78.9206H213.314Z" fill="#06D8A5"/>
</svg>
