<svg width="130" height="130" viewBox="0 0 130 130" fill="none" xmlns="http://www.w3.org/2000/svg">
<path d="M33.8462 12.5305C33.8522 12.2135 33.9832 11.9118 34.2106 11.691C34.9724 10.9516 36.2486 11.4914 36.2486 12.5531V107.286C36.2486 108.441 35.3121 109.377 34.1569 109.377C32.9863 109.377 32.0436 108.417 32.0656 107.246L33.8462 12.5305Z" fill="#018AEB"/>
<path d="M57.2918 108.516C57.3107 108.832 57.2038 109.143 56.9944 109.381C56.2929 110.178 54.9784 109.74 54.8951 108.682L47.4624 14.2411C47.3718 13.0895 48.2319 12.0824 49.3836 11.9918C50.5505 11.9 51.5657 12.7836 51.6356 13.9521L57.2918 108.516Z" fill="#018AEB"/>
<path d="M98.6394 47.8091L100.238 44.4579L72.7614 102.064C72.0461 103.563 70.2503 104.199 68.7505 103.484C67.1434 102.717 66.5499 100.731 67.473 99.2082L98.6394 47.8091Z" fill="#FFB300"/>
<path d="M89.7652 44.2579L104.091 105.943C104.374 107.164 103.639 108.389 102.428 108.714C101.093 109.071 99.743 108.192 99.5299 106.827L89.7652 44.2579Z" fill="#FFB300"/>
<path d="M29.0682 87.2099C29.0682 85.8992 30.1536 84.849 31.4636 84.8921L116.87 87.7051C117.362 87.7213 117.752 88.1247 117.752 88.6168C117.752 89.1206 117.344 89.529 116.84 89.529H31.3872C30.1065 89.529 29.0682 88.4907 29.0682 87.2099Z" fill="#018AEB"/>
<circle cx="65" cy="65" r="62.5" stroke="#FFB300" stroke-width="5"/>
</svg>
